# xmcd
#
# Track frame offsets:
#	150
#	9268
#	22899
#	30888
#	41473
#	50564
#	63288
#	70444
#	82590
#	91005
#	101824
#	113079
#	122645
#	128867
#	147479
#	161939
#	174392
#	184003
#	193330
#	205420
#
# Disc length: 2874 seconds
#
# Revision: 5
# Processed by: cddbd v1.5.2PL0 Copyright (c) Steve Scherf et al.
# Submitted via: EasyCDDAExtractor 16.1.0.1
#
DISCID=090b3814
DTITLE=Various Artist - Country Gold CD 2
DYEAR=2006
DGENRE=Country
TTITLE0=Johnny Cash - Blue Train
TTITLE1=Don Williams - I'm Just A Country Boy
TTITLE2=Tammy Wynette - When The Grass Grows Over Me
TTITLE3=Patsy Cline - I Don't Wanna
TTITLE4=Jimmy Dean - It'll Be Easy
TTITLE5=Lynn Anderson - I Never Promised You A Rose Garden
TTITLE6=Barbara Mandrell - Kentucky Means Paradise
TTITLE7=Don Williams - Some Broken Hearts Never Mend
TTITLE8=Lee Greenwood - Ring On Her Finger
TTITLE9=Ferlin Husky - Baby For You
TTITLE10=Merle Haggard - Begging To You
TTITLE11=Faron Young - Alone With You
TTITLE12=George Jones - Chicken Reel
TTITLE13=Merle Haggard - Foot Lights
TTITLE14=David Fritzell - I Love You A Thousend Ways
TTITLE15=Patsy Cline - Finger Prints
TTITLE16=Ketty Wells - Whose Shoulder Will You Cry On
TTITLE17=Conway Twitty - Ever Since You Went Away
TTITLE18=Johnny Paycheck - I'll Follow You Up To Our
TTITLE19=Johnny Cash - Get Rhytm
EXTD=YEAR: 2006
EXTT0=
EXTT1=
EXTT2=
EXTT3=
EXTT4=
EXTT5=
EXTT6=
EXTT7=
EXTT8=
EXTT9=
EXTT10=
EXTT11=
EXTT12=
EXTT13=
EXTT14=
EXTT15=
EXTT16=
EXTT17=
EXTT18=
EXTT19=
PLAYORDER=
